PathFileType	4	(X/Y/Z)	F:\MotionCapture\20160217\3\Generated_files\EMG_test04-Dynamic.trc
DataRate	CameraRate	NumFrames	NumMarkers	Units	OrigDataRate	OrigDataStartFrame	OrigNumFrames
120.00	120.00	       5	39	mm	120.00	90	       713
Frame#	Time	Top.Head			Front.Head			Rear.Head			R.Shoulder			R.Offset			R.Elbow			R.Wrist			L.Shoulder			L.Elbow			L.Wrist			R.ASIS			L.ASIS			V.Sacral			R.Thigh			R.Knee			R.Shank			R.Ankle			R.Heel			R.Toe			L.Thigh			L.Knee			L.Shank			L.Ankle			L.Heel			L.Toe			R1			R2			R3			R4			R5			R6			R7			L1			L2			L3			L4			L5			L6			L7			V_Mid_ASIS			V_Pelvis_Origin			V_R.Hip_JC			V_L.Hip_JC			V_R.Knee_JC			V_L.Knee_JC			V_R.Ankle_JC			V_L.Ankle_JC			V_Mid_Hip			V_Mid_Shoulder			V_R.Hand			V_L.Hand			V_R.Toe_Offset_Static			V_L.Toe_Offset_Static			V_R.Toe_Offset			V_L.Toe_Offset			
		X1	Y1	Z1	X2	Y2	Z2	X3	Y3	Z3	X4	Y4	Z4	X5	Y5	Z5	X6	Y6	Z6	X7	Y7	Z7	X8	Y8	Z8	X9	Y9	Z9	X10	Y10	Z10	X11	Y11	Z11	X12	Y12	Z12	X13	Y13	Z13	X14	Y14	Z14	X15	Y15	Z15	X16	Y16	Z16	X17	Y17	Z17	X18	Y18	Z18	X19	Y19	Z19	X20	Y20	Z20	X21	Y21	Z21	X22	Y22	Z22	X23	Y23	Z23	X24	Y24	Z24	X25	Y25	Z25	X26	Y26	Z26	X27	Y27	Z27	X28	Y28	Z28	X29	Y29	Z29	X30	Y30	Z30	X31	Y31	Z31	X32	Y32	Z32	X33	Y33	Z33	X34	Y34	Z34	X35	Y35	Z35	X36	Y36	Z36	X37	Y37	Z37	X38	Y38	Z38	X39	Y39	Z39	

90	0.742																																																																																																																																																																						2970.43018	246.04614	58.31460	3074.09839	0.69641	955.62726	3194.99683	256.71924	54.19108	2947.33813	165.48997	1634.40698	2996.92065	239.30458	594.37292	3126.35474	64.75038	333.74548	3306.52734	132.78114	956.84674	2885.94263	-99.09559	928.34766	3174.98291	185.15611	52.55984	3070.99512	1.64433	53.30045	3211.15356	-1.00662	72.65912	3128.27637	-11.86795	475.70084	3082.83203	208.65700	241.73007	3102.83423	190.61351	67.92770	3142.08276	362.29160	1424.18298	3050.29004	171.20671	1728.15356	3236.12866	89.83826	53.26537	3240.97852	469.01291	1120.94434	3028.68652	28.32675	52.35363	3062.30078	-144.60016	1109.54236	3250.08008	15.62622	54.46422	3046.33936	283.17184	475.37091	3094.65552	-41.50349	1432.31470	3156.52637	276.86261	83.11575	3015.61670	261.54993	52.72825	3113.75122	-29.33617	51.61754	4652.60889	-247.24509	1669.30078	3165.55591	170.84258	1670.24634	3269.23193	79.69405	1295.45288	3151.76563	87.14767	59.80545	3275.21533	57.93980	52.35475	3746.96680	206.43608	-130.51591	3159.35938	156.61617	-53.10430	3223.23950	212.92464	53.42687	3176.59277	-15.02710	44.43606	3059.82764	40.16707	57.11510	3055.64282	303.85669	50.62893	3042.67065	46.25102	634.27716	3089.20117	287.65390	945.72369	3159.10742	485.59686	870.25885	3009.02686	229.30902	60.56316	3120.82495	287.66534	48.10024	
91	0.750																																																																																																																																																																						2970.33960	245.80820	56.98204	3070.54810	1.36020	955.60785	3196.07397	257.66760	54.13400	2943.04321	166.09720	1634.39612	3127.23340	-11.33275	474.98172	2994.61011	241.29420	593.07098	3125.77563	65.06495	333.63013	3302.45972	134.68629	956.58307	2877.54541	-96.51637	931.45270	3176.18896	185.15376	51.80555	3071.11475	1.53827	53.31870	3211.37646	-1.09734	72.65441	3083.06274	208.68581	240.51678	3103.51294	190.12868	67.24513	3138.80347	363.91724	1424.51477	3047.09937	171.54201	1728.56921	3236.21118	89.68878	53.34334	3029.04028	28.47451	52.70858	3056.39429	-142.69699	1109.11755	3250.31982	15.52018	54.49106	3045.55469	282.77280	473.98474	3090.55688	-39.76320	1431.48169	3157.24292	276.93484	82.14527	3015.78271	261.58966	51.65953	3113.91577	-28.58298	50.64985	3161.89966	170.68588	1670.12988	3265.39038	81.71069	1294.93457	3152.02051	86.96012	60.20991	3275.30566	57.83569	52.30239	3238.95703	468.78979	1121.55750	3159.72998	156.38200	-54.38361	3223.88013	213.52962	52.13359	3176.72949	-15.44925	44.54605	3059.53955	40.05738	55.62295	3056.03662	303.81384	50.32270	3039.42944	46.80323	633.15637	3163.85010	486.69083	869.16962	3084.93677	288.85699	945.86694	3009.57788	229.85028	60.09029	4641.21094	-244.51585	1669.52734	3121.47290	287.71866	47.35905	
92	0.758																																																																																																																																																																						2970.64819	246.20377	55.38339	3066.85718	3.01328	955.43958	3196.67114	257.48001	52.77039	3125.68115	-10.05953	474.43735	2993.10718	242.27527	591.44843	3123.63867	64.89382	333.79276	3298.12061	137.44987	956.76611	2868.75684	-93.61213	934.35455	3176.72778	185.05487	51.37355	3071.23950	1.53796	53.38144	3211.62964	-1.06929	72.54472	2940.06714	166.33969	1635.57336	3083.24072	208.42569	239.47365	3104.56396	190.51756	66.41040	3135.04639	365.47745	1424.22974	3043.77490	172.52737	1728.54907	3236.32568	89.49124	53.44305	3087.82153	-38.72475	1431.76794	3029.22095	28.25038	53.01529	3051.02734	-141.34821	1109.23230	3250.65918	14.54432	55.01478	3045.89941	282.51312	472.62030	3157.56738	276.86523	81.41772	3114.05298	-29.88051	51.61817	3037.07080	47.32679	633.22302	3158.67871	171.88750	1669.75391	3261.48193	83.17831	1294.74597	3152.03882	86.64787	60.75905	3275.43799	57.73771	52.24607	3014.80371	261.14069	50.07270	3237.39917	469.45477	1122.38916	3176.84082	-15.64083	44.48524	3059.78589	39.89469	55.82521	3057.19678	305.07162	49.82409	3224.87793	213.16116	52.21600	3079.47803	290.29227	945.10968	3010.05981	230.28252	59.78023	3122.20337	288.61212	47.04658	3168.79663	488.16425	869.39874	4632.77246	-243.05698	1670.02478	
93	0.767																																																																																																																																																																						2970.96777	246.52388	54.68412	3063.07666	3.79819	955.54980	3197.47607	258.28235	52.90657	3212.21948	-2.46887	73.64175	3124.56665	-10.11104	474.48996	2992.44189	243.65578	588.20465	3123.36841	65.29784	333.06540	3293.71460	139.31010	956.48615	2860.36841	-91.11089	937.71387	3177.89380	186.71484	51.73942	3071.38818	1.55867	53.36581	3176.98267	-15.87537	44.49866	2936.65381	167.83249	1635.60828	3104.91064	190.45851	66.17922	3130.75464	366.53687	1424.95313	3040.62524	173.35020	1728.70569	3236.44678	89.35658	53.62883	3083.07227	-37.13427	1430.91321	3029.39063	28.08751	53.46646	3045.57373	-139.58780	1108.04602	3250.75317	14.53582	54.73098	3046.98462	284.59045	472.33823	3158.30737	275.81314	80.19109	3114.15601	-30.14687	51.40523	3034.57886	47.85520	631.94415	3155.20483	171.66235	1669.92102	3257.24878	84.48474	1294.32373	3151.80908	86.12196	60.91283	3275.62256	58.23246	51.74637	3015.21045	261.88861	49.97814	3236.47339	471.59384	1124.25183	3083.76001	207.53630	239.13994	4625.86035	-241.95943	1670.56604	3176.98267	-15.87537	44.49866	3060.02905	39.73536	55.94496	3058.23828	305.93851	49.36656	3225.74268	213.24887	51.80683	3074.13501	291.26544	944.40576	3010.46997	230.96548	59.27657	3123.30469	289.37408	46.75860	3172.85352	488.97803	868.64612	
94	0.775																																																																																																																																																																						2971.15869	246.38347	53.61380	3058.75317	4.88586	955.28906	3198.01831	258.69687	53.54683	3212.27466	-3.05209	73.08360	3123.20679	-9.85139	474.82852	3121.48438	65.42260	332.81937	3289.14844	141.55423	956.62665	2852.29150	-88.92850	940.51874	3178.10669	186.62656	51.52291	3071.78564	1.83587	53.39484	2933.20703	168.67998	1636.07800	3032.04810	48.01763	631.92499	3105.13867	190.60677	66.16489	3037.55200	173.44301	1728.69592	3236.08423	88.23074	53.04907	3080.34351	-36.42421	1430.68799	3030.04321	28.76909	55.14648	3040.24951	-138.20828	1108.20740	3250.96118	14.28848	54.72560	3126.09595	367.82629	1424.62573	3047.00537	285.44650	470.22342	2991.98975	246.14032	587.42560	3158.88525	275.99289	80.23714	3114.59204	-30.75425	52.44468	3151.91211	173.11729	1670.08044	3253.40137	85.65022	1293.87976	3152.14429	86.25439	60.84764	3275.75757	58.15496	51.66051	3015.17334	262.12451	49.27586	3083.59351	208.24358	237.86446	3177.04639	-15.89148	44.40585	3060.65674	39.30506	57.71021	3058.33667	306.46588	49.27867	2853.35107	209.20564	835.89301	3226.20361	213.17792	51.48271	4628.04053	-242.48869	1670.91663	3069.39160	291.83728	944.31329	3010.40112	231.22653	57.75127	3123.96069	289.40314	46.27534	3177.47656	489.51877	868.21442	
